<?xml version="1.0" encoding="UTF-8" standalone="no"?>
<!-- Created with Inkscape (http://www.inkscape.org/) -->

<svg
   xmlns:dc="http://purl.org/dc/elements/1.1/"
   xmlns:cc="http://creativecommons.org/ns#"
   xmlns:rdf="http://www.w3.org/1999/02/22-rdf-syntax-ns#"
   xmlns:svg="http://www.w3.org/2000/svg"
   xmlns="http://www.w3.org/2000/svg"
   xmlns:sodipodi="http://sodipodi.sourceforge.net/DTD/sodipodi-0.dtd"
   xmlns:inkscape="http://www.inkscape.org/namespaces/inkscape"
   width="1024"
   height="500"
   viewBox="0 0 270.93333 132.29167"
   version="1.1"
   id="svg6414"
   sodipodi:docname="feature-graphic-testnet.svg"
   inkscape:export-filename="C:\Users\HashEngineering\Documents\HashEngineering\Groestlcoin\lnwallet\graphics\feature-mainnet-testnet.png"
   inkscape:export-xdpi="96.000008"
   inkscape:export-ydpi="96.000008"
   inkscape:version="0.92.3 (2405546, 2018-03-11)">
  <defs
     id="defs6408">
    <linearGradient
       id="SVGID_8_"
       gradientUnits="userSpaceOnUse"
       x1="189.35361"
       y1="444.06921"
       x2="41.079399"
       y2="295.79501">
      <stop
         offset="0"
         style="stop-color:#377F94"
         id="stop69" />
      <stop
         offset="1"
         style="stop-color:#34ADC4"
         id="stop71" />
    </linearGradient>
    <linearGradient
       id="SVGID_9_"
       gradientUnits="userSpaceOnUse"
       x1="22.5301"
       y1="416.7908"
       x2="142.0043"
       y2="297.3165">
      <stop
         offset="0"
         style="stop-color:#00A5BD"
         id="stop76" />
      <stop
         offset="1"
         style="stop-color:#005E78"
         id="stop78" />
    </linearGradient>
    <linearGradient
       id="SVGID_10_"
       gradientUnits="userSpaceOnUse"
       x1="76.497398"
       y1="460.7247"
       x2="210.47729"
       y2="326.74481">
      <stop
         offset="0"
         style="stop-color:#00A5BD"
         id="stop83" />
      <stop
         offset="1"
         style="stop-color:#005E78"
         id="stop85" />
    </linearGradient>
    <linearGradient
       y2="114.2308"
       x2="492.01541"
       y1="114.2308"
       x1="315.92899"
       gradientUnits="userSpaceOnUse"
       id="SVGID_14_">
      <stop
         id="stop121"
         style="stop-color:#00A5BD"
         offset="0" />
      <stop
         id="stop123"
         style="stop-color:#005E78"
         offset="1" />
    </linearGradient>
    <linearGradient
       id="SVGID_15_"
       gradientUnits="userSpaceOnUse"
       x1="290.9747"
       y1="199.9747"
       x2="490.4747"
       y2="0.4747">
      <stop
         offset="0"
         style="stop-color:#00A5BD"
         id="stop130" />
      <stop
         offset="1"
         style="stop-color:#005E78"
         id="stop132" />
    </linearGradient>
  </defs>
  <sodipodi:namedview
     id="base"
     pagecolor="#ffffff"
     bordercolor="#666666"
     borderopacity="1.0"
     inkscape:pageopacity="0.0"
     inkscape:pageshadow="2"
     inkscape:zoom="1.3896484"
     inkscape:cx="606.77721"
     inkscape:cy="256"
     inkscape:document-units="mm"
     inkscape:current-layer="layer1"
     showgrid="false"
     inkscape:window-width="1920"
     inkscape:window-height="1001"
     inkscape:window-x="-9"
     inkscape:window-y="-9"
     inkscape:window-maximized="1"
     units="px" />
  <metadata
     id="metadata6411">
    <rdf:RDF>
      <cc:Work
         rdf:about="">
        <dc:format>image/svg+xml</dc:format>
        <dc:type
           rdf:resource="http://purl.org/dc/dcmitype/StillImage" />
        <dc:title></dc:title>
      </cc:Work>
    </rdf:RDF>
  </metadata>
  <g
     inkscape:label="Layer 1"
     inkscape:groupmode="layer"
     id="layer1"
     transform="translate(0,-164.70833)">
    <text
       xml:space="preserve"
       style="font-style:normal;font-weight:normal;font-size:10.58333302px;line-height:1.25;font-family:sans-serif;letter-spacing:0px;word-spacing:0px;fill:#000000;fill-opacity:1;stroke:none;stroke-width:0.26458332"
       x="126.80365"
       y="226.05583"
       id="text838"><tspan
         sodipodi:role="line"
         id="tspan836"
         x="126.80365"
         y="226.05583"
         style="font-style:italic;font-variant:normal;font-weight:normal;font-stretch:normal;font-size:22.57777786px;font-family:sans-serif;-inkscape-font-specification:'sans-serif, Italic';font-variant-ligatures:normal;font-variant-caps:normal;font-variant-numeric:normal;font-feature-settings:normal;text-align:start;writing-mode:lr-tb;text-anchor:start;stroke-width:0.26458332">Groestlcoin</tspan><tspan
         sodipodi:role="line"
         x="126.80365"
         y="249.28404"
         style="font-size:16.93333244px;stroke-width:0.26458332"
         id="tspan840">Lightning Wallet</tspan></text>
    <g
       transform="matrix(6.9972319,0,0,6.9972319,15.089636,-1802.432)"
       id="g5191">
      <polygon
         transform="matrix(0.08419672,0,0,0.08419672,-27.669685,281.07683)"
         id="polygon40"
         points="309.7,218.9 443.4,218.9 498.4,153.6 498.4,8.5 309.7,8.5 "
         class="st5"
         style="opacity:0.6;fill:#feffff" />
      <g
         transform="matrix(0.08419672,0,0,0.08419672,-27.661265,281.03473)"
         id="g128">
        <linearGradient
           y2="114.2308"
           x2="492.01541"
           y1="114.2308"
           x1="315.92899"
           gradientUnits="userSpaceOnUse"
           id="linearGradient7945">
          <stop
             id="stop7941"
             style="stop-color:#00A5BD"
             offset="0" />
          <stop
             id="stop7943"
             style="stop-color:#005E78"
             offset="1" />
        </linearGradient>
        <path
           style="fill:url(#SVGID_14_)"
           inkscape:connector-curvature="0"
           id="path126"
           d="m 459.4,171.2 h -19.7 v 0 h -16.9 l -2,-10.5 c -1.5,2 -3.2,3.8 -4.9,5.2 -1.7,1.4 -4.1,3 -7,4.6 -6,1.9 -11.1,2.9 -15.4,2.9 -2,0 -4,0 -5.9,-0.2 -1.9,-0.1 -3.7,-0.3 -5.4,-0.6 -1.7,-0.3 -3.2,-0.7 -4.5,-1.1 -1.3,-0.4 -3,-1.2 -5.1,-2.4 -5.1,-2.4 -9.8,-6.3 -14.2,-11.5 -4.4,-5.2 -7.8,-12.1 -10.4,-20.7 -1.8,-7.8 -2.7,-16.2 -2.7,-25.2 0,-15.7 3.2,-29.4 9.6,-41.2 8.2,-13.9 21.1,-20.9 38.6,-20.9 h 2.7 3.1 c 1.7,0 4,0.4 6.9,1.1 10.4,2 18.8,7.7 25.2,17.4 0.8,1 1.7,2.5 2.7,4.3 1,1.8 1.8,3.6 2.4,5.2 1.5,3.5 2.9,7.6 4.3,12.5 h -25.6 c -2.4,-6 -5.4,-10.6 -8.9,-13.7 -0.4,-0.3 -1.2,-0.8 -2.4,-1.4 -1.2,-0.6 -2.3,-1.1 -3.3,-1.5 -2.6,-1 -5.1,-1.5 -7.3,-1.5 -4,0 -7.6,1.2 -10.8,3.5 -7.9,6.2 -11.9,18.1 -11.9,35.6 0,7.7 0.7,13.5 2,17.4 1.5,5.7 3.5,10.5 5.8,14.3 3.3,5.8 8.1,8.7 14.6,8.7 3.2,0 6,-0.6 8.6,-1.9 2.6,-1.3 5.1,-3.3 7.4,-6.2 2.9,-4.3 4.9,-9.3 5.8,-15 H 388.3 V 107 h 51.6 v 64.1 l 24.9,-49.9 h 26.7 l -21.2,33.4 H 492 V 16 H 315.9 V 212.4 H 442 Z"
           class="st16" />
      </g>
      <polygon
         transform="matrix(0.08419672,0,0,0.08419672,-27.707573,281.05157)"
         id="polygon135"
         points="310,219 443.9,219 499,153.8 499,9 310,9 "
         class="st17"
         style="opacity:0.4;fill:url(#SVGID_15_)" />
    </g>
    <text
       xml:space="preserve"
       style="font-style:normal;font-weight:normal;font-size:10.58333302px;line-height:1.25;font-family:sans-serif;letter-spacing:0px;word-spacing:0px;fill:#000000;fill-opacity:1;stroke:none;stroke-width:0.26458332"
       x="206.38913"
       y="263.10953"
       id="text5249"><tspan
         sodipodi:role="line"
         id="tspan5247"
         x="206.38913"
         y="263.10953"
         style="stroke-width:0.26458332">for TestNet</tspan></text>
  </g>
</svg>
