<?xml version="1.0" encoding="UTF-8" standalone="no"?>
<!-- Created with Inkscape (http://www.inkscape.org/) -->

<svg
   xmlns:dc="http://purl.org/dc/elements/1.1/"
   xmlns:cc="http://creativecommons.org/ns#"
   xmlns:rdf="http://www.w3.org/1999/02/22-rdf-syntax-ns#"
   xmlns:svg="http://www.w3.org/2000/svg"
   xmlns="http://www.w3.org/2000/svg"
   xmlns:sodipodi="http://sodipodi.sourceforge.net/DTD/sodipodi-0.dtd"
   xmlns:inkscape="http://www.inkscape.org/namespaces/inkscape"
   width="48"
   height="48"
   viewBox="0 0 12.7 12.7"
   version="1.1"
   id="svg7174"
   inkscape:version="0.92.3 (2405546, 2018-03-11)"
   sodipodi:docname="google-play-testnet.svg"
   inkscape:export-filename="C:\Users\HashEngineering\Documents\HashEngineering\Groestlcoin\lnwallet\graphics\testnet_512x512.png"
   inkscape:export-xdpi="1024"
   inkscape:export-ydpi="1024">
  <defs
     id="defs7168">
    <linearGradient
       id="SVGID_16_"
       gradientUnits="userSpaceOnUse"
       x1="435.90469"
       y1="437.64828"
       x2="305.10059"
       y2="306.8443">
      <stop
         offset="0"
         style="stop-color:#00A5BD"
         id="stop137" />
      <stop
         offset="1"
         style="stop-color:#005E78"
         id="stop139" />
    </linearGradient>
    <linearGradient
       id="SVGID_1_"
       gradientUnits="userSpaceOnUse"
       x1="493.31161"
       y1="391.08829"
       x2="352.78448"
       y2="250.5611">
      <stop
         offset="0"
         style="stop-color:#377F94"
         id="stop8" />
      <stop
         offset="1"
         style="stop-color:#34ADC4"
         id="stop10" />
    </linearGradient>
    <linearGradient
       id="SVGID_2_"
       gradientUnits="userSpaceOnUse"
       x1="482.95029"
       y1="401.44958"
       x2="342.4231"
       y2="260.92249">
      <stop
         offset="0"
         style="stop-color:#377F94"
         id="stop15" />
      <stop
         offset="1"
         style="stop-color:#34ADC4"
         id="stop17" />
    </linearGradient>
    <linearGradient
       id="SVGID_3_"
       gradientUnits="userSpaceOnUse"
       x1="386.87131"
       y1="497.52859"
       x2="246.3441"
       y2="357.0014">
      <stop
         offset="0"
         style="stop-color:#377F94"
         id="stop22" />
      <stop
         offset="1"
         style="stop-color:#34ADC4"
         id="stop24" />
    </linearGradient>
    <linearGradient
       id="SVGID_4_"
       gradientUnits="userSpaceOnUse"
       x1="441.1853"
       y1="443.20599"
       x2="300.66339"
       y2="302.68411">
      <stop
         offset="0"
         style="stop-color:#377F94"
         id="stop31" />
      <stop
         offset="1"
         style="stop-color:#34ADC4"
         id="stop33" />
    </linearGradient>
    <linearGradient
       y2="114.2308"
       x2="492.01541"
       y1="114.2308"
       x1="315.92899"
       gradientUnits="userSpaceOnUse"
       id="SVGID_14_">
      <stop
         id="stop121"
         style="stop-color:#00A5BD"
         offset="0" />
      <stop
         id="stop123"
         style="stop-color:#005E78"
         offset="1" />
    </linearGradient>
    <linearGradient
       id="SVGID_15_"
       gradientUnits="userSpaceOnUse"
       x1="290.9747"
       y1="199.9747"
       x2="490.4747"
       y2="0.4747">
      <stop
         offset="0"
         style="stop-color:#00A5BD"
         id="stop130" />
      <stop
         offset="1"
         style="stop-color:#005E78"
         id="stop132" />
    </linearGradient>
  </defs>
  <sodipodi:namedview
     id="base"
     pagecolor="#ffffff"
     bordercolor="#666666"
     borderopacity="1.0"
     inkscape:pageopacity="0.0"
     inkscape:pageshadow="2"
     inkscape:zoom="1.8397052"
     inkscape:cx="-97.651361"
     inkscape:cy="62.661788"
     inkscape:document-units="mm"
     inkscape:current-layer="layer1"
     showgrid="false"
     inkscape:window-width="1920"
     inkscape:window-height="1001"
     inkscape:window-x="-9"
     inkscape:window-y="-9"
     inkscape:window-maximized="1"
     units="px" />
  <metadata
     id="metadata7171">
    <rdf:RDF>
      <cc:Work
         rdf:about="">
        <dc:format>image/svg+xml</dc:format>
        <dc:type
           rdf:resource="http://purl.org/dc/dcmitype/StillImage" />
        <dc:title></dc:title>
      </cc:Work>
    </rdf:RDF>
  </metadata>
  <g
     inkscape:label="Layer 1"
     inkscape:groupmode="layer"
     id="layer1"
     transform="translate(0,-284.3)">
    <rect
       style="opacity:1;fill:#feffff;fill-opacity:1;stroke:none;stroke-width:0.26458332;stroke-linejoin:round;stroke-miterlimit:4;stroke-dasharray:none;stroke-opacity:1"
       id="rect848"
       width="22.148022"
       height="19.84693"
       x="-4.7240109"
       y="280.72653" />
    <g
       id="g5191">
      <polygon
         transform="matrix(0.08419672,0,0,0.08419672,-27.669685,281.07683)"
         id="polygon40"
         points="309.7,218.9 443.4,218.9 498.4,153.6 498.4,8.5 309.7,8.5 "
         class="st5"
         style="opacity:0.6;fill:#feffff" />
      <g
         transform="matrix(0.08419672,0,0,0.08419672,-27.661265,281.03473)"
         id="g128">
        <linearGradient
           y2="114.2308"
           x2="492.01541"
           y1="114.2308"
           x1="315.92899"
           gradientUnits="userSpaceOnUse"
           id="linearGradient7945">
          <stop
             id="stop7941"
             style="stop-color:#00A5BD"
             offset="0" />
          <stop
             id="stop7943"
             style="stop-color:#005E78"
             offset="1" />
        </linearGradient>
        <path
           style="fill:url(#SVGID_14_)"
           inkscape:connector-curvature="0"
           id="path126"
           d="m 459.4,171.2 h -19.7 v 0 h -16.9 l -2,-10.5 c -1.5,2 -3.2,3.8 -4.9,5.2 -1.7,1.4 -4.1,3 -7,4.6 -6,1.9 -11.1,2.9 -15.4,2.9 -2,0 -4,0 -5.9,-0.2 -1.9,-0.1 -3.7,-0.3 -5.4,-0.6 -1.7,-0.3 -3.2,-0.7 -4.5,-1.1 -1.3,-0.4 -3,-1.2 -5.1,-2.4 -5.1,-2.4 -9.8,-6.3 -14.2,-11.5 -4.4,-5.2 -7.8,-12.1 -10.4,-20.7 -1.8,-7.8 -2.7,-16.2 -2.7,-25.2 0,-15.7 3.2,-29.4 9.6,-41.2 8.2,-13.9 21.1,-20.9 38.6,-20.9 h 2.7 3.1 c 1.7,0 4,0.4 6.9,1.1 10.4,2 18.8,7.7 25.2,17.4 0.8,1 1.7,2.5 2.7,4.3 1,1.8 1.8,3.6 2.4,5.2 1.5,3.5 2.9,7.6 4.3,12.5 h -25.6 c -2.4,-6 -5.4,-10.6 -8.9,-13.7 -0.4,-0.3 -1.2,-0.8 -2.4,-1.4 -1.2,-0.6 -2.3,-1.1 -3.3,-1.5 -2.6,-1 -5.1,-1.5 -7.3,-1.5 -4,0 -7.6,1.2 -10.8,3.5 -7.9,6.2 -11.9,18.1 -11.9,35.6 0,7.7 0.7,13.5 2,17.4 1.5,5.7 3.5,10.5 5.8,14.3 3.3,5.8 8.1,8.7 14.6,8.7 3.2,0 6,-0.6 8.6,-1.9 2.6,-1.3 5.1,-3.3 7.4,-6.2 2.9,-4.3 4.9,-9.3 5.8,-15 H 388.3 V 107 h 51.6 v 64.1 l 24.9,-49.9 h 26.7 l -21.2,33.4 H 492 V 16 H 315.9 V 212.4 H 442 Z"
           class="st16" />
      </g>
      <polygon
         transform="matrix(0.08419672,0,0,0.08419672,-27.707573,281.05157)"
         id="polygon135"
         points="310,219 443.9,219 499,153.8 499,9 310,9 "
         class="st17"
         style="opacity:0.4;fill:url(#SVGID_15_)" />
    </g>
  </g>
</svg>
