<?xml version="1.0" encoding="utf-8"?>
<!-- Generator: Adobe Illustrator 23.0.1, SVG Export Plug-In . SVG Version: 6.00 Build 0)  -->
<svg version="1.1" id="GRS" xmlns="http://www.w3.org/2000/svg" xmlns:xlink="http://www.w3.org/1999/xlink" x="0px" y="0px"
	 viewBox="0 0 1000 1000" style="enable-background:new 0 0 1000 1000;" xml:space="preserve">
<style type="text/css">
	.st0{opacity:0.6;fill:#FFFFFF;enable-background:new    ;}
	.st1{fill:#FFFFFF;}
</style>
<g>
	<g>
		<path class="st0" d="M427.5,621.9c-0.7-0.9-1.5-1.8-2.2-2.7c-26.4-33.9-39.7-81.6-39.7-143.1c0-47.5,9.7-82.7,29.2-105.7
			c19.4-23,43.6-34.5,72.3-34.5c31.1,0,56.6,12.9,76.4,38.6c26.8,35,40.3,83.5,40.3,145.4c0,0,0,0,0,0c0-61.9-13.4-110.4-40.3-145.4
			c-19.8-25.7-45.3-38.6-76.4-38.6c-28.8,0-52.9,11.5-72.3,34.5c-19.4,23-29.2,58.2-29.2,105.7c0,61.5,13.2,109.2,39.7,143.1
			C426.1,620.1,426.8,621,427.5,621.9z"/>
		<path class="st0" d="M338,914.8c2.1-3.8,4.4-7.6,7-11.6C342.4,907.2,340.1,911.1,338,914.8C338,914.9,338,914.9,338,914.8
			C338,914.9,338,914.9,338,914.8z"/>
		<path class="st0" d="M429.6,865.2c-18.6-1.7-35.2-3.5-49.8-5.6c-0.4,0.4-0.8,0.8-1.1,1.2c0.4-0.4,0.8-0.8,1.1-1.2
			C394.4,861.7,411.1,863.6,429.6,865.2z"/>
		<path class="st0" d="M743.8,102.5c-0.8-0.8-1.6-1.5-2.4-2.2C742.2,101,743,101.7,743.8,102.5z"/>
		<path class="st0" d="M740,99.1c-0.4-0.4-0.9-0.8-1.3-1.1C739.1,98.3,739.6,98.7,740,99.1z"/>
		<path class="st0" d="M310.1,596.6c17.5,28.7,42.7,51.1,75.4,67.1c0,0,0,0,0,0C352.8,647.7,327.7,625.3,310.1,596.6
			c-17.5-28.7-26.3-60.5-26.3-95.2c0,0,0,0,0,0C283.8,536.2,292.6,567.9,310.1,596.6z"/>
		<path class="st0" d="M347.6,854.8C347.6,854.8,347.6,854.8,347.6,854.8c-20.3-12.1-34.6-23-43-32.5c-8.4-9.6-12.6-20.4-12.6-32.5
			c0,0,0,0,0,0c0,12.1,4.2,23,12.6,32.5C313,831.9,327.3,842.7,347.6,854.8z"/>
		<polygon class="st0" points="787,327.9 760.5,404.6 787,327.9 		"/>
		<path class="st0" d="M430,865.3c0.8,0.1,1.7,0.1,2.5,0.2C431.7,865.4,430.9,865.3,430,865.3z"/>
		<path class="st0" d="M311.6,892.4c0-0.1,0.1-0.1,0.1-0.2C311.7,892.3,311.6,892.3,311.6,892.4z"/>
		<path class="st0" d="M703.1,888.3c0.7,0.3,1.3,0.6,2,0.9C704.4,888.9,703.7,888.6,703.1,888.3c-20.3-8.5-60.5-13.6-120.6-15.1
			c-54.9-1.5-101.9-3.8-140.9-7c39,3.2,86,5.5,140.9,7C642.5,874.8,682.8,879.8,703.1,888.3z"/>
		<path class="st0" d="M698,80.3c-0.3,0-0.6-0.1-0.9-0.1C697.4,80.2,697.7,80.3,698,80.3z"/>
		<path class="st0" d="M693.6,79.8c-0.3,0-0.7-0.1-1-0.1C692.9,79.7,693.2,79.8,693.6,79.8z"/>
		<path class="st0" d="M702.4,81.1c-0.2,0-0.5-0.1-0.7-0.1C701.9,81,702.1,81,702.4,81.1z"/>
		<path class="st0" d="M736.9,96.5c-0.3-0.2-0.6-0.4-0.9-0.7C736.3,96.1,736.6,96.3,736.9,96.5z"/>
		<path class="st0" d="M605.7,164.1c5.6-16.7,14.3-29.3,26-37.9c11.7-8.6,24.9-12.9,39.7-12.9c16.2,0,30.1,6.1,41.8,18.4
			c11.6,12.2,17.5,27.9,17.5,46.9c0,0,0,0,0,0c0-19-5.8-34.6-17.5-46.9c-11.6-12.2-25.6-18.4-41.8-18.4c-14.7,0-28,4.3-39.7,12.9
			C620,134.8,611.3,147.5,605.7,164.1l-8.2,0c0,0,0,0,0,0H605.7z"/>
		<path class="st0" d="M688.8,79.4c-0.3,0-0.6,0-1-0.1C688.2,79.4,688.5,79.4,688.8,79.4z"/>
		<path class="st0" d="M636.7,351.6L636.7,351.6c9.5-8.8,32.1-32.7,68-71.9c24.5-26.7,42.2-52,53.1-76c7.1-15.2,10.6-30.4,10.6-45.6
			c0-8-1.1-15.6-3.4-22.7c2.3,7.2,3.4,14.8,3.4,22.7c0,15.2-3.5,30.4-10.6,45.6c-10.9,23.9-28.6,49.2-53.1,76
			C668.9,318.9,646.2,342.8,636.7,351.6z"/>
		<path class="st0" d="M714.8,84.5C714.8,84.5,714.8,84.5,714.8,84.5C714.8,84.5,714.8,84.5,714.8,84.5z"/>
		<path class="st0" d="M706.6,82c-0.2,0-0.3-0.1-0.5-0.1C706.3,81.9,706.4,82,706.6,82z"/>
		<path class="st0" d="M710.8,83.1c-0.1,0-0.2-0.1-0.3-0.1C710.6,83.1,710.7,83.1,710.8,83.1z"/>
		<path class="st0" d="M759.7,849.1c0.1,0.1,0.2,0.3,0.2,0.4C759.8,849.3,759.8,849.2,759.7,849.1z"/>
		<path class="st0" d="M755.6,842.9C755.7,842.9,755.7,842.9,755.6,842.9C755.7,842.9,755.7,842.9,755.6,842.9z"/>
		<path class="st0" d="M753.1,839.5c0.2,0.2,0.3,0.5,0.5,0.7C753.5,840,753.3,839.7,753.1,839.5z"/>
		<path class="st0" d="M710.9,892.3c-0.5-0.3-1-0.6-1.5-0.8C710,891.7,710.4,892,710.9,892.3z"/>
		<path class="st0" d="M757.7,845.9c0.1,0.2,0.2,0.3,0.3,0.5C757.9,846.2,757.8,846.1,757.7,845.9z"/>
		<path class="st0" d="M709,891.2c-0.4-0.2-0.9-0.5-1.3-0.7C708.1,890.7,708.5,890.9,709,891.2z"/>
		<path class="st0" d="M750.9,836.7c0.1,0.2,0.2,0.3,0.4,0.5C751.2,837,751,836.9,750.9,836.7z"/>
		<path class="st0" d="M500,0C223.9,0,0,223.8,0,500c0,192.5,108.8,359.6,268.3,443.1c5.5-7.5,12.4-16.4,19.5-25.2
			c0.1-0.1,0.2-0.2,0.3-0.4C136,840.2,31.8,682.3,31.8,500C31.8,241.4,241.4,31.8,500,31.8c79.1,0,153.6,19.6,218.9,54.3
			c5.3,2.2,10.3,5,15.1,8.3C874,175.3,968.2,326.6,968.2,500c0,156.9-77.2,295.7-195.6,380.7c2.1,8.9,3.1,18.2,3.1,28
			c0,2.9-0.1,5.8-0.3,8.7C910.7,827.9,1000,674.4,1000,500C1000,223.8,776.1,0,500,0z"/>
		<path class="st0" d="M763.6,856c0-0.1-0.1-0.2-0.1-0.3C763.5,855.8,763.5,855.9,763.6,856z"/>
		<path class="st0" d="M323.6,879.8C323.6,879.8,323.6,879.8,323.6,879.8C323.6,879.8,323.6,879.8,323.6,879.8z"/>
		<path class="st0" d="M745.6,830.6c0.2,0.2,0.5,0.5,0.7,0.7C746,831.1,745.8,830.9,745.6,830.6z"/>
		<path class="st0" d="M748.1,833.4c0.2,0.2,0.4,0.4,0.5,0.6C748.5,833.8,748.3,833.6,748.1,833.4z"/>
		<path class="st0" d="M318.4,885.2c0.1-0.1,0.3-0.3,0.4-0.4C318.7,884.9,318.5,885.1,318.4,885.2z"/>
		<path class="st0" d="M711.2,892.5c7.4,4.5,12.9,10,16.5,16.7c-67.4,37.6-145,59-227.7,59c-60.5,0-118.4-11.5-171.5-32.4
			c0.8-2.4,1.7-4.8,2.7-7.2c-5,11.8-7.4,23-7.4,33.4c0,1.8,0.3,4.4,0.5,6.3C379,988.8,438.2,1000,500,1000
			c83.7,0,162.6-20.6,231.9-56.9c0.7-3.9,1.1-7.8,1.1-11.8C732.9,914.1,725.7,901.2,711.2,892.5z"/>
		<path class="st0" d="M316.1,887.7c0-0.1,0.1-0.1,0.1-0.2C316.2,887.6,316.1,887.6,316.1,887.7z"/>
		<path class="st0" d="M320.9,882.6c0.1-0.1,0.3-0.3,0.4-0.4C321.2,882.4,321,882.5,320.9,882.6z"/>
		<path class="st0" d="M334.2,922.1c0.2-0.5,0.5-0.9,0.7-1.4C334.7,921.1,334.5,921.6,334.2,922.1z"/>
		<path class="st0" d="M335.8,918.9c0.2-0.4,0.4-0.8,0.6-1.1C336.2,918.2,336,918.5,335.8,918.9z"/>
		<path class="st0" d="M331.5,928c0.3-0.6,0.5-1.2,0.8-1.8C332.1,926.8,331.8,927.4,331.5,928z"/>
		<path class="st0" d="M332.8,925.1c0.2-0.5,0.5-1.1,0.7-1.6C333.3,924,333.1,924.5,332.8,925.1z"/>
		<path class="st0" d="M707,890.2c-0.5-0.2-0.9-0.4-1.4-0.7C706.1,889.7,706.6,889.9,707,890.2z"/>
	</g>
	<path class="st1" d="M787,327.9h-8.2c-3.8,6.6-8.3,11.8-13.5,15.4c-5.2,3.6-11,6-17.4,7.2c-6.4,1.2-17.6,1.8-33.5,1.8h-77.1
		l-0.5-0.6c9.4-8.8,32.1-32.7,68-71.9c24.5-26.7,42.2-52,53.1-76c7.1-15.2,10.6-30.4,10.6-45.6c0-21.3-8.2-39.7-24.4-55.4
		c-16.3-15.7-36.6-23.5-61-23.5c-22.9,0-41.9,7.3-57.2,21.9c-15.3,14.6-24.7,35.6-28.4,62.9h8.2c5.6-16.7,14.3-29.3,26-37.9
		c11.7-8.6,24.9-12.9,39.7-12.9c16.2,0,30.1,6.1,41.8,18.4c11.6,12.2,17.5,27.9,17.5,46.9c0,25-10.6,52.5-31.8,82.6
		c-15.6,22.2-39.6,49.1-71.9,80.6c-36.7-23.2-79.7-34.9-129.2-34.9c-62.5,0-113.7,19.1-153.8,57.4c-40,38.3-60,84-60,137.1
		c0,34.8,8.8,66.5,26.3,95.2c17.5,28.7,42.7,51.1,75.4,67.1c-40.2,33.6-65.8,59.6-76.9,78c-11.1,18.4-16.7,34.4-16.7,48.1
		c0,12.1,4.2,23,12.6,32.5c8.4,9.6,22.7,20.4,43,32.5c-37.2,38.6-57.1,59.6-59.9,63.1c-7.3,9-14,17.6-19.5,25.2
		c17.9,9.4,36.9,17.9,56.1,25.1c-0.3-1.9-0.5-4.3-0.5-6.3c0-14.3,4.7-30.1,14.1-47.1c9.4-17.1,23.4-35.5,41.8-55.3
		c47.2,6.7,114.8,11.3,202.6,13.6c60.1,1.5,100.3,6.6,120.6,15.1c19.9,8.5,29.9,22.8,29.9,43c0,4.1-0.3,7.7-1.1,11.8
		c15-7.8,29.5-16.5,43.5-25.7c0.2-3.1,0.3-5.6,0.3-8.7c0-31.9-10.9-58.8-32.5-80.6c-21.7-21.8-50.7-35.2-87-40.3
		c-23.8-3.9-76-6.9-156.4-9.1c-43.8-1.3-71.1-2.8-82-4.5c-18.8-2.7-31.4-7.1-37.8-13.3c-6.4-6.2-9.7-12.6-9.7-19.1
		c0-7.7,3-17.1,9.1-28.1c6.1-11,17.7-23.9,34.9-38.6c27.7,7.9,54.8,11.9,81.3,11.9c64.3,0,115.6-17.8,153.8-53.4
		c38.2-35.6,57.3-78.5,57.3-128.6c0-39.9-9.1-73.4-27.3-100.3h81.2L787,327.9z M575.2,624.5c-19.1,22.2-43.4,33.3-72.9,33.3
		c-31.1,0-56.8-12.8-77-38.6c-26.4-33.9-39.7-81.6-39.7-143.1c0-47.5,9.7-82.7,29.2-105.7c19.4-23,43.6-34.5,72.3-34.5
		c31.1,0,56.6,12.9,76.4,38.6c26.8,35,40.3,83.5,40.3,145.4C603.8,567.4,594.3,602.3,575.2,624.5z"/>
</g>
</svg>
