<?xml version="1.0" encoding="utf-8"?>
<!-- Generator: Adobe Illustrator 23.0.1, SVG Export Plug-In . SVG Version: 6.00 Build 0)  -->
<svg version="1.1" id="Capa_1" xmlns="http://www.w3.org/2000/svg" xmlns:xlink="http://www.w3.org/1999/xlink" x="0px" y="0px"
	 viewBox="0 0 512 512" style="enable-background:new 0 0 512 512;" xml:space="preserve">
<style type="text/css">
	.st0{fill:#FEFFFF;}
	.st1{opacity:0.6;fill:url(#SVGID_1_);}
	.st2{opacity:0.6;fill:url(#SVGID_2_);}
	.st3{opacity:0.6;fill:url(#SVGID_3_);}
	.st4{opacity:0.6;fill:url(#SVGID_4_);}
	.st5{opacity:0.6;fill:#FEFFFF;}
	.st6{opacity:0.6;fill:url(#SVGID_5_);}
	.st7{fill:url(#SVGID_6_);}
	.st8{fill:url(#SVGID_7_);}
	.st9{opacity:0.6;fill:url(#SVGID_8_);}
	.st10{fill:url(#SVGID_9_);}
	.st11{fill:url(#SVGID_10_);}
	.st12{opacity:0.6;fill:#FCFCFC;}
	.st13{opacity:0.4;fill:url(#SVGID_11_);}
	.st14{fill:url(#SVGID_12_);}
	.st15{fill:url(#SVGID_13_);}
	.st16{fill:url(#SVGID_14_);}
	.st17{opacity:0.4;fill:url(#SVGID_15_);}
	.st18{fill:url(#SVGID_16_);}
</style>
<g>
	<path class="st0" d="M479.5,379.7c0-0.6,0-1.2,0-1.8C479.5,378.5,479.5,379.1,479.5,379.7z"/>
	<path class="st0" d="M374.7,272.1c57.8,0,104.7,46.8,104.8,104.6c0-0.1,0-0.2,0-0.3c0-57.9-46.9-104.8-104.8-104.8
		s-104.8,46.9-104.8,104.8c0,0.1,0,0.2,0,0.3C270,318.9,316.8,272.1,374.7,272.1z"/>
	<linearGradient id="SVGID_1_" gradientUnits="userSpaceOnUse" x1="493.3116" y1="391.0883" x2="352.7845" y2="250.5611">
		<stop  offset="0" style="stop-color:#377F94"/>
		<stop  offset="1" style="stop-color:#34ADC4"/>
	</linearGradient>
	<path class="st1" d="M479.5,377c0-0.1,0-0.2,0-0.3c0,0.4,0,0.8,0,1.2C479.5,377.6,479.5,377.3,479.5,377z"/>
	<linearGradient id="SVGID_2_" gradientUnits="userSpaceOnUse" x1="482.9503" y1="401.4496" x2="342.4231" y2="260.9225">
		<stop  offset="0" style="stop-color:#377F94"/>
		<stop  offset="1" style="stop-color:#34ADC4"/>
	</linearGradient>
	<path class="st2" d="M474.1,410.3c3.2-9.7,5.1-20,5.4-30.7c-0.3,10.8-2.3,21.2-5.7,30.9L474.1,410.3z"/>
	<linearGradient id="SVGID_3_" gradientUnits="userSpaceOnUse" x1="386.8713" y1="497.5286" x2="246.3441" y2="357.0014">
		<stop  offset="0" style="stop-color:#377F94"/>
		<stop  offset="1" style="stop-color:#34ADC4"/>
	</linearGradient>
	<path class="st3" d="M269.8,376.7c0,0.1,0,0.2,0,0.3c0,57.9,46.9,104.8,104.8,104.8c10.5,0,20.7-1.6,30.3-4.5l0.8-0.8
		c-9.8,3.1-20.3,4.7-31.1,4.7C316.8,481.3,270,434.5,269.8,376.7z"/>
	<path class="st0" d="M479.5,376.7c-0.1-57.8-47-104.6-104.8-104.6S270,318.9,269.8,376.7c0.1,57.8,47,104.6,104.8,104.6
		c10.8,0,21.3-1.6,31.1-4.7l68-66c3.4-9.7,5.3-20.1,5.7-30.9c0-0.6,0-1.2,0-1.8C479.5,377.5,479.5,377.1,479.5,376.7z"/>
	<linearGradient id="SVGID_4_" gradientUnits="userSpaceOnUse" x1="441.1853" y1="443.206" x2="300.6634" y2="302.6841">
		<stop  offset="0" style="stop-color:#377F94"/>
		<stop  offset="1" style="stop-color:#34ADC4"/>
	</linearGradient>
	<path class="st4" d="M479.5,376.7c-0.1-57.8-47-104.6-104.8-104.6S270,318.9,269.8,376.7c0.1,57.8,47,104.6,104.8,104.6
		c10.8,0,21.3-1.6,31.1-4.7l68-66c3.4-9.7,5.3-20.1,5.7-30.9c0-0.6,0-1.2,0-1.8C479.5,377.5,479.5,377.1,479.5,376.7z"/>
</g>
<polygon class="st5" points="498.4,8.5 309.7,8.5 309.7,218.9 443.4,218.9 498.4,153.6 "/>
<g>
	<linearGradient id="SVGID_5_" gradientUnits="userSpaceOnUse" x1="189.3536" y1="444.0692" x2="41.0794" y2="295.795">
		<stop  offset="0" style="stop-color:#377F94"/>
		<stop  offset="1" style="stop-color:#34ADC4"/>
	</linearGradient>
	<circle class="st6" cx="115.2" cy="369.9" r="104.8"/>
	<g>
		<linearGradient id="SVGID_6_" gradientUnits="userSpaceOnUse" x1="22.5301" y1="416.7908" x2="142.0043" y2="297.3165">
			<stop  offset="0" style="stop-color:#00A5BD"/>
			<stop  offset="1" style="stop-color:#005E78"/>
		</linearGradient>
		<path class="st7" d="M109.3,371.9H67.5l49.7-99.4c0,0,0,0,0,0c-54.3-1.1-99.2,42.2-100.1,96.4c-0.7,39.5,22.1,74,55.5,90.2
			L109.3,371.9z"/>
		<linearGradient id="SVGID_7_" gradientUnits="userSpaceOnUse" x1="76.4974" y1="460.7247" x2="210.4773" y2="326.7448">
			<stop  offset="0" style="stop-color:#00A5BD"/>
			<stop  offset="1" style="stop-color:#005E78"/>
		</linearGradient>
		<path class="st8" d="M164.5,285.4l-32.2,50.7h48.6L76.2,460.4c14.2,6.2,30.2,9.1,47,7.7c46.1-3.6,83.5-39.3,89.4-85.1
			C217.8,341.7,197.2,304.4,164.5,285.4z"/>
	</g>
</g>
<g>
	<circle class="st0" cx="115.2" cy="369.9" r="104.8"/>
	<linearGradient id="SVGID_8_" gradientUnits="userSpaceOnUse" x1="189.3536" y1="444.0692" x2="41.0794" y2="295.795">
		<stop  offset="0" style="stop-color:#377F94"/>
		<stop  offset="1" style="stop-color:#34ADC4"/>
	</linearGradient>
	<circle class="st9" cx="115.2" cy="369.9" r="104.8"/>
	<g>
		<linearGradient id="SVGID_9_" gradientUnits="userSpaceOnUse" x1="22.5301" y1="416.7908" x2="142.0043" y2="297.3165">
			<stop  offset="0" style="stop-color:#00A5BD"/>
			<stop  offset="1" style="stop-color:#005E78"/>
		</linearGradient>
		<path class="st10" d="M109.3,371.9H67.5l49.7-99.4c0,0,0,0,0,0c-54.3-1.1-99.2,42.2-100.1,96.4c-0.7,39.5,22.1,74,55.5,90.2
			L109.3,371.9z"/>
		<linearGradient id="SVGID_10_" gradientUnits="userSpaceOnUse" x1="76.4974" y1="460.7247" x2="210.4773" y2="326.7448">
			<stop  offset="0" style="stop-color:#00A5BD"/>
			<stop  offset="1" style="stop-color:#005E78"/>
		</linearGradient>
		<path class="st11" d="M164.5,285.4l-32.2,50.7h48.6L76.2,460.4c14.2,6.2,30.2,9.1,47,7.7c46.1-3.6,83.5-39.3,89.4-85.1
			C217.8,341.7,197.2,304.4,164.5,285.4z"/>
	</g>
</g>
<g>
	<rect x="9.9" y="8.5" class="st12" width="210.7" height="210.7"/>
	<linearGradient id="SVGID_11_" gradientUnits="userSpaceOnUse" x1="9.8775" y1="219.1451" x2="220.5555" y2="8.4671">
		<stop  offset="0" style="stop-color:#00A5BD"/>
		<stop  offset="1" style="stop-color:#005E78"/>
	</linearGradient>
	<rect x="9.9" y="8.5" class="st13" width="210.7" height="210.7"/>
	<g>
		<linearGradient id="SVGID_12_" gradientUnits="userSpaceOnUse" x1="-22.0182" y1="175.0341" x2="123.876" y2="29.1399">
			<stop  offset="0" style="stop-color:#00A5BD"/>
			<stop  offset="1" style="stop-color:#005E78"/>
		</linearGradient>
		<polygon class="st14" points="100.1,121.6 56.1,121.6 109.5,14.8 16.4,14.8 16.4,213.5 61.3,213.5 		"/>
		<linearGradient id="SVGID_13_" gradientUnits="userSpaceOnUse" x1="79.7873" y1="226.1736" x2="253.1291" y2="52.8318">
			<stop  offset="0" style="stop-color:#00A5BD"/>
			<stop  offset="1" style="stop-color:#005E78"/>
		</linearGradient>
		<polygon class="st15" points="168.6,14.8 124.9,83.5 176.5,83.5 67.1,213.5 215.1,213.5 215.1,14.8 		"/>
	</g>
</g>
<g>
	<linearGradient id="SVGID_14_" gradientUnits="userSpaceOnUse" x1="315.929" y1="114.2308" x2="492.0154" y2="114.2308">
		<stop  offset="0" style="stop-color:#00A5BD"/>
		<stop  offset="1" style="stop-color:#005E78"/>
	</linearGradient>
	<path class="st16" d="M459.4,171.2h-19.7l0,0h-16.9l-2-10.5c-1.5,2-3.2,3.8-4.9,5.2c-1.7,1.4-4.1,3-7,4.6c-6,1.9-11.1,2.9-15.4,2.9
		c-2,0-4,0-5.9-0.2c-1.9-0.1-3.7-0.3-5.4-0.6c-1.7-0.3-3.2-0.7-4.5-1.1c-1.3-0.4-3-1.2-5.1-2.4c-5.1-2.4-9.8-6.3-14.2-11.5
		c-4.4-5.2-7.8-12.1-10.4-20.7c-1.8-7.8-2.7-16.2-2.7-25.2c0-15.7,3.2-29.4,9.6-41.2c8.2-13.9,21.1-20.9,38.6-20.9h2.7h3.1
		c1.7,0,4,0.4,6.9,1.1c10.4,2,18.8,7.7,25.2,17.4c0.8,1,1.7,2.5,2.7,4.3c1,1.8,1.8,3.6,2.4,5.2c1.5,3.5,2.9,7.6,4.3,12.5h-25.6
		c-2.4-6-5.4-10.6-8.9-13.7c-0.4-0.3-1.2-0.8-2.4-1.4c-1.2-0.6-2.3-1.1-3.3-1.5c-2.6-1-5.1-1.5-7.3-1.5c-4,0-7.6,1.2-10.8,3.5
		c-7.9,6.2-11.9,18.1-11.9,35.6c0,7.7,0.7,13.5,2,17.4c1.5,5.7,3.5,10.5,5.8,14.3c3.3,5.8,8.1,8.7,14.6,8.7c3.2,0,6-0.6,8.6-1.9
		c2.6-1.3,5.1-3.3,7.4-6.2c2.9-4.3,4.9-9.3,5.8-15h-26.5V107h51.6v64.1l24.9-49.9h26.7l-21.2,33.4H492V16H315.9v196.4h126.1
		L459.4,171.2z"/>
</g>
<linearGradient id="SVGID_15_" gradientUnits="userSpaceOnUse" x1="290.9747" y1="199.9747" x2="490.4747" y2="0.4747">
	<stop  offset="0" style="stop-color:#00A5BD"/>
	<stop  offset="1" style="stop-color:#005E78"/>
</linearGradient>
<polygon class="st17" points="499,9 310,9 310,219 443.9,219 499,153.8 "/>
<g>
	<linearGradient id="SVGID_16_" gradientUnits="userSpaceOnUse" x1="435.9047" y1="437.6483" x2="305.1006" y2="306.8443">
		<stop  offset="0" style="stop-color:#00A5BD"/>
		<stop  offset="1" style="stop-color:#005E78"/>
	</linearGradient>
	<path class="st18" d="M415.5,432.5h-32.8v0h-16.4l-1.9-10.2c-1.5,2-3.1,3.7-4.7,5s-3.9,2.9-6.8,4.4c-5.8,1.9-10.8,2.8-15,2.8
		c-2,0-3.9,0-5.7-0.1s-3.6-0.3-5.3-0.6s-3.1-0.6-4.4-1c-1.2-0.4-2.9-1.2-5-2.4c-4.9-2.4-9.5-6.1-13.8-11.2s-7.6-11.8-10.1-20.1
		c-1.8-7.6-2.7-15.7-2.7-24.4c0-15.2,3.1-28.5,9.3-40c8-13.5,20.5-20.3,37.5-20.3h2.7h3c1.7,0,3.9,0.3,6.7,1
		c10.1,1.9,18.2,7.5,24.4,16.9c0.8,1,1.7,2.4,2.6,4.2c0.9,1.8,1.7,3.5,2.3,5.1c1.5,3.4,2.9,7.4,4.1,12.1h-24.9
		c-2.4-5.8-5.2-10.3-8.6-13.3c-0.4-0.3-1.2-0.7-2.3-1.3s-2.2-1.1-3.2-1.5c-2.6-1-4.9-1.5-7.1-1.5c-3.8,0-7.4,1.1-10.5,3.4
		c-7.7,6-11.5,17.5-11.5,34.5c0,7.5,0.6,13.1,1.9,16.9c1.5,5.5,3.4,10.2,5.6,13.9c3.2,5.6,7.9,8.4,14.2,8.4c3.1,0,5.8-0.6,8.4-1.9
		c2.5-1.2,4.9-3.2,7.2-6c2.9-4.1,4.7-9,5.6-14.5h-25.8v-20.7h50v62.3l41.7-83.4h44.5l-35.3,55.6h35.3c2.7-8.9,4.1-18.4,4.1-28.2
		c0-54.3-44-98.4-98.4-98.4c-54.3,0-98.4,44-98.4,98.4c0,54.3,44,98.4,98.4,98.4c8.4,0,16.5-1.1,24.3-3L415.5,432.5z"/>
</g>
</svg>
