<?xml version="1.0" encoding="UTF-8" standalone="no"?>
<!-- Generator: Adobe Illustrator 23.0.1, SVG Export Plug-In . SVG Version: 6.00 Build 0)  -->

<svg
   xmlns:dc="http://purl.org/dc/elements/1.1/"
   xmlns:cc="http://creativecommons.org/ns#"
   xmlns:rdf="http://www.w3.org/1999/02/22-rdf-syntax-ns#"
   xmlns:svg="http://www.w3.org/2000/svg"
   xmlns="http://www.w3.org/2000/svg"
   xmlns:sodipodi="http://sodipodi.sourceforge.net/DTD/sodipodi-0.dtd"
   xmlns:inkscape="http://www.inkscape.org/namespaces/inkscape"
   version="1.1"
   id="Layer_1"
   x="0px"
   y="0px"
   viewBox="0 0 18 18"
   xml:space="preserve"
   sodipodi:docname="testnet_flash.svg"
   width="18"
   height="18"
   inkscape:version="0.92.3 (2405546, 2018-03-11)"><metadata
   id="metadata16"><rdf:RDF><cc:Work
       rdf:about=""><dc:format>image/svg+xml</dc:format><dc:type
         rdf:resource="http://purl.org/dc/dcmitype/StillImage" /><dc:title></dc:title></cc:Work></rdf:RDF></metadata><defs
   id="defs14" /><sodipodi:namedview
   pagecolor="#ffffff"
   bordercolor="#666666"
   borderopacity="1"
   objecttolerance="10"
   gridtolerance="10"
   guidetolerance="10"
   inkscape:pageopacity="0"
   inkscape:pageshadow="2"
   inkscape:window-width="1920"
   inkscape:window-height="1001"
   id="namedview12"
   showgrid="false"
   inkscape:zoom="0.4609375"
   inkscape:cx="256"
   inkscape:cy="256"
   inkscape:window-x="-9"
   inkscape:window-y="-9"
   inkscape:window-maximized="1"
   inkscape:current-layer="Layer_1" />
<style
   type="text/css"
   id="style2">
	.st0{fill:url(#SVGID_1_);}
</style>
<linearGradient
   id="SVGID_1_"
   gradientUnits="userSpaceOnUse"
   x1="1.8783"
   y1="248.4166"
   x2="495.27328"
   y2="248.4166"
   gradientTransform="matrix(0.0344548,0,0,0.0344548,0.43454,0.44145)">
	<stop
   offset="0"
   style="stop-color:#00A5BD"
   id="stop4" />
	<stop
   offset="1"
   style="stop-color:#005E78"
   id="stop6" />
</linearGradient>
<path
   class="st0"
   d="M 17.5,6.50549 H 14.34049 L 17.26915,1.88855 H 13.55493 L 10.11289,8.77951 H 5.22375 v 2.37738 h 2.91488 c -0.0999,0.62708 -0.31354,1.17146 -0.63741,1.64005 -0.25841,0.31354 -0.52716,0.53749 -0.81314,0.67876 -0.28597,0.14126 -0.59951,0.21017 -0.9475,0.21017 -0.71322,0 -1.25071,-0.31698 -1.60904,-0.9544 C 3.87313,12.30768 3.66295,11.78397 3.49412,11.15689 3.34941,10.7331 3.27706,10.09568 3.27706,9.24809 c 0,-1.91913 0.43413,-3.22152 1.30583,-3.90373 0.35833,-0.25841 0.75456,-0.38589 1.18869,-0.38589 0.24463,0 0.51338,0.0551 0.8028,0.16883 0.11026,0.0448 0.23085,0.0999 0.36178,0.16883 0.12748,0.0655 0.21362,0.11714 0.25841,0.1516 0.379,0.34455 0.70288,0.84759 0.97162,1.50567 h 2.83563 C 10.85367,6.41935 10.69862,5.9611 10.52979,5.57521 10.46089,5.3926 10.37475,5.19965 10.26794,4.99637 10.16113,4.79309 10.06121,4.63459 9.97163,4.52089 9.26186,3.4528 8.33158,2.81194 7.18423,2.59487 6.86725,2.51557 6.61573,2.47428 6.42278,2.47428 H 6.11269 5.80949 c -1.92947,0 -3.34557,0.76834 -4.25517,2.30503 C 0.85144,6.07825 0.5,7.59082 0.5,9.317 c 0,0.98541 0.0999,1.91224 0.3032,2.77361 0.27909,0.94062 0.66153,1.70207 1.1439,2.27747 0.48237,0.57884 1.00264,0.99919 1.56425,1.27138 0.23429,0.13437 0.42379,0.22396 0.56506,0.26875 0.14126,0.0448 0.30665,0.0827 0.49615,0.11714 0.1895,0.0345 0.38934,0.0551 0.59607,0.0689 0.20672,0.0103 0.42379,0.0172 0.64775,0.0172 0.47203,0 1.03709,-0.10681 1.69862,-0.32043 0.32387,-0.17916 0.58228,-0.34799 0.77523,-0.50304 0.1895,-0.15849 0.36867,-0.34799 0.5375,-0.57195 l 0.21706,1.16113 H 10.9088 V 14.33703 Z M 10.9088,13.3999 V 8.81396 h 1.92947 z"
   id="path9"
   inkscape:connector-curvature="0"
   style="fill:url(#SVGID_1_);stroke-width:0.0344548" />
</svg>