<?xml version="1.0" encoding="UTF-8" standalone="no"?>
<!-- Generator: Adobe Illustrator 23.0.1, SVG Export Plug-In . SVG Version: 6.00 Build 0)  -->

<svg
   xmlns:dc="http://purl.org/dc/elements/1.1/"
   xmlns:cc="http://creativecommons.org/ns#"
   xmlns:rdf="http://www.w3.org/1999/02/22-rdf-syntax-ns#"
   xmlns:svg="http://www.w3.org/2000/svg"
   xmlns="http://www.w3.org/2000/svg"
   xmlns:sodipodi="http://sodipodi.sourceforge.net/DTD/sodipodi-0.dtd"
   xmlns:inkscape="http://www.inkscape.org/namespaces/inkscape"
   version="1.1"
   id="Layer_1"
   x="0px"
   y="0px"
   viewBox="0 0 24 24"
   xml:space="preserve"
   sodipodi:docname="ic_btc_24dp-mdpi.svg"
   inkscape:version="0.92.3 (2405546, 2018-03-11)"
   width="24"
   height="24"><metadata
   id="metadata13"><rdf:RDF><cc:Work
       rdf:about=""><dc:format>image/svg+xml</dc:format><dc:type
         rdf:resource="http://purl.org/dc/dcmitype/StillImage" /><dc:title></dc:title></cc:Work></rdf:RDF></metadata><defs
   id="defs11" /><sodipodi:namedview
   pagecolor="#ffffff"
   bordercolor="#666666"
   borderopacity="1"
   objecttolerance="10"
   gridtolerance="10"
   guidetolerance="10"
   inkscape:pageopacity="0"
   inkscape:pageshadow="2"
   inkscape:window-width="1920"
   inkscape:window-height="1001"
   id="namedview9"
   showgrid="false"
   inkscape:zoom="0.64551421"
   inkscape:cx="182.8"
   inkscape:cy="182.8"
   inkscape:window-x="-9"
   inkscape:window-y="-9"
   inkscape:window-maximized="1"
   inkscape:current-layer="Layer_1" />
<style
   type="text/css"
   id="style2">
	.st0{fill:#FFFFFF;}
</style>
<g
   id="g6"
   transform="matrix(0.06355932,0,0,0.06355932,0.3813563,0.3813563)">
	<path
   class="st0"
   d="M 22,359.8 V 5.8 h 321.6 v 354 z m 309.6,-12 V 17.8 H 35.2 v 330 z M 245.5,141.4 h -43.1 c -4.1,-10.2 -9.1,-17.9 -15,-23.2 -0.7,-0.5 -2,-1.3 -4,-2.3 -2,-1 -3.8,-1.9 -5.6,-2.6 -4.5,-1.7 -8.6,-2.6 -12.4,-2.6 -6.7,0 -12.8,2 -18.3,5.9 -13.4,10.5 -20.1,30.6 -20.1,60.2 0,13.1 1.1,22.9 3.4,29.4 2.6,9.6 5.8,17.7 9.8,24.3 5.5,9.8 13.8,14.7 24.8,14.7 5.3,0 10.2,-1.1 14.6,-3.2 4.4,-2.2 8.6,-5.6 12.5,-10.5 5,-7.2 8.3,-15.7 9.8,-25.3 h -44.2 v -36 H 244 v 108 h -28.6 l -3.3,-17.8 c -2.6,3.4 -5.3,6.4 -8.2,8.8 -2.9,2.4 -6.9,5 -11.8,7.7 -10.1,3.3 -18.8,4.9 -26,4.9 -3.4,0 -6.7,-0.1 -9.9,-0.3 -3.2,-0.2 -6.2,-0.5 -9.1,-1 -2.9,-0.5 -5.5,-1.1 -7.6,-1.8 -2.1,-0.7 -5,-2.1 -8.6,-4.1 -8.6,-4.1 -16.6,-10.6 -23.9,-19.4 -7.4,-8.8 -13.2,-20.5 -17.5,-34.9 -3.1,-13.2 -4.6,-27.4 -4.6,-42.5 0,-26.4 5.4,-49.6 16.2,-69.5 C 114.8,84.8 136.5,73 166,73 h 4.4 5.2 c 2.9,0 6.8,0.6 11.6,1.8 17.6,3.3 31.7,13.1 42.6,29.4 1.4,1.7 2.9,4.2 4.5,7.3 1.6,3.1 3,6.1 4,8.8 2.5,5.9 4.9,13 7.2,21.1 z m 67.8,140.1 c 0,5 -1.5,9.5 -4.6,13.6 l -2.6,3.3 -3.9,3.6 -3.6,2.6 -2.6,1.8 -2.6,1.8 -3.3,2.6 c -2.1,1.2 -3.7,2.7 -4.9,4.4 l -1.8,1.5 h 30.1 v 12 H 268 v -2.2 c 0,0 3.6,-16.2 12.1,-23.4 l 7.4,-5.4 4.6,-3.9 3.6,-3.3 c 2.5,-2.9 3.8,-6.2 3.8,-9.8 0,-6.5 -2.9,-9.8 -8.7,-9.8 -3.3,0 -5.7,1.5 -7.2,4.4 l -2.3,3.9 v 5 H 268 V 282 c -0.7,-3.1 -0.1,-5.9 0.9,-8.5 0.3,-1.4 0.9,-2.6 1.5,-3.7 0.7,-1.1 1.7,-2.5 3.1,-4.2 3.9,-3.9 9.4,-5.9 16.4,-5.9 10.8,0 17.9,4.1 21.3,12.3 0.7,1.9 1.2,3.5 1.5,4.7 0.4,1.3 0.6,2.9 0.6,4.8 z"
   id="path4"
   inkscape:connector-curvature="0"
   style="fill:#ffffff" />
</g>
</svg>