<?xml version="1.0" encoding="UTF-8" standalone="no"?>
<!-- Generator: Adobe Illustrator 23.0.1, SVG Export Plug-In . SVG Version: 6.00 Build 0)  -->

<svg
   xmlns:dc="http://purl.org/dc/elements/1.1/"
   xmlns:cc="http://creativecommons.org/ns#"
   xmlns:rdf="http://www.w3.org/1999/02/22-rdf-syntax-ns#"
   xmlns:svg="http://www.w3.org/2000/svg"
   xmlns="http://www.w3.org/2000/svg"
   xmlns:sodipodi="http://sodipodi.sourceforge.net/DTD/sodipodi-0.dtd"
   xmlns:inkscape="http://www.inkscape.org/namespaces/inkscape"
   version="1.1"
   id="GRS"
   x="0px"
   y="0px"
   viewBox="0 0 24 24"
   xml:space="preserve"
   sodipodi:docname="ic_btc_24dp.svg"
   width="24"
   height="24"
   inkscape:version="0.92.3 (2405546, 2018-03-11)"><metadata
   id="metadata99"><rdf:RDF><cc:Work
       rdf:about=""><dc:format>image/svg+xml</dc:format><dc:type
         rdf:resource="http://purl.org/dc/dcmitype/StillImage" /><dc:title></dc:title></cc:Work></rdf:RDF></metadata><defs
   id="defs97" /><sodipodi:namedview
   pagecolor="#ffffff"
   bordercolor="#666666"
   borderopacity="1"
   objecttolerance="10"
   gridtolerance="10"
   guidetolerance="10"
   inkscape:pageopacity="0"
   inkscape:pageshadow="2"
   inkscape:window-width="1920"
   inkscape:window-height="1001"
   id="namedview95"
   showgrid="false"
   inkscape:zoom="35.130435"
   inkscape:cx="12"
   inkscape:cy="12"
   inkscape:window-x="-9"
   inkscape:window-y="-9"
   inkscape:window-maximized="1"
   inkscape:current-layer="GRS" />
<style
   type="text/css"
   id="style2">
	.st0{opacity:0.6;fill:#FFFFFF;enable-background:new    ;}
	.st1{fill:#FFFFFF;}
</style>
<g
   id="g92"
   transform="matrix(0.023,0,0,0.023,0.5,0.5)"
   style="stroke:none;stroke-opacity:1">
	<g
   id="g88"
   style="stroke:none;stroke-opacity:1">
		<path
   class="st0"
   d="m 427.5,621.9 c -0.7,-0.9 -1.5,-1.8 -2.2,-2.7 -26.4,-33.9 -39.7,-81.6 -39.7,-143.1 0,-47.5 9.7,-82.7 29.2,-105.7 19.4,-23 43.6,-34.5 72.3,-34.5 31.1,0 56.6,12.9 76.4,38.6 26.8,35 40.3,83.5 40.3,145.4 0,0 0,0 0,0 0,-61.9 -13.4,-110.4 -40.3,-145.4 -19.8,-25.7 -45.3,-38.6 -76.4,-38.6 -28.8,0 -52.9,11.5 -72.3,34.5 -19.4,23 -29.2,58.2 -29.2,105.7 0,61.5 13.2,109.2 39.7,143.1 0.8,0.9 1.5,1.8 2.2,2.7 z"
   id="path4"
   inkscape:connector-curvature="0"
   style="opacity:0.6;fill:#ffffff;enable-background:new;stroke:none;stroke-opacity:1" />
		<path
   class="st0"
   d="m 338,914.8 c 2.1,-3.8 4.4,-7.6 7,-11.6 -2.6,4 -4.9,7.9 -7,11.6 0,0.1 0,0.1 0,0 0,0.1 0,0.1 0,0 z"
   id="path6"
   inkscape:connector-curvature="0"
   style="opacity:0.6;fill:#ffffff;enable-background:new;stroke:none;stroke-opacity:1" />
		<path
   class="st0"
   d="m 429.6,865.2 c -18.6,-1.7 -35.2,-3.5 -49.8,-5.6 -0.4,0.4 -0.8,0.8 -1.1,1.2 0.4,-0.4 0.8,-0.8 1.1,-1.2 14.6,2.1 31.3,4 49.8,5.6 z"
   id="path8"
   inkscape:connector-curvature="0"
   style="opacity:0.6;fill:#ffffff;enable-background:new;stroke:none;stroke-opacity:1" />
		<path
   class="st0"
   d="m 743.8,102.5 c -0.8,-0.8 -1.6,-1.5 -2.4,-2.2 0.8,0.7 1.6,1.4 2.4,2.2 z"
   id="path10"
   inkscape:connector-curvature="0"
   style="opacity:0.6;fill:#ffffff;enable-background:new;stroke:none;stroke-opacity:1" />
		<path
   class="st0"
   d="m 740,99.1 c -0.4,-0.4 -0.9,-0.8 -1.3,-1.1 0.4,0.3 0.9,0.7 1.3,1.1 z"
   id="path12"
   inkscape:connector-curvature="0"
   style="opacity:0.6;fill:#ffffff;enable-background:new;stroke:none;stroke-opacity:1" />
		<path
   class="st0"
   d="m 310.1,596.6 c 17.5,28.7 42.7,51.1 75.4,67.1 0,0 0,0 0,0 -32.7,-16 -57.8,-38.4 -75.4,-67.1 -17.5,-28.7 -26.3,-60.5 -26.3,-95.2 0,0 0,0 0,0 0,34.8 8.8,66.5 26.3,95.2 z"
   id="path14"
   inkscape:connector-curvature="0"
   style="opacity:0.6;fill:#ffffff;enable-background:new;stroke:none;stroke-opacity:1" />
		<path
   class="st0"
   d="m 347.6,854.8 c 0,0 0,0 0,0 -20.3,-12.1 -34.6,-23 -43,-32.5 -8.4,-9.6 -12.6,-20.4 -12.6,-32.5 0,0 0,0 0,0 0,12.1 4.2,23 12.6,32.5 8.4,9.6 22.7,20.4 43,32.5 z"
   id="path16"
   inkscape:connector-curvature="0"
   style="opacity:0.6;fill:#ffffff;enable-background:new;stroke:none;stroke-opacity:1" />
		<polygon
   class="st0"
   points="787,327.9 760.5,404.6 "
   id="polygon18"
   style="opacity:0.6;fill:#ffffff;enable-background:new;stroke:none;stroke-opacity:1" />
		<path
   class="st0"
   d="m 430,865.3 c 0.8,0.1 1.7,0.1 2.5,0.2 -0.8,-0.1 -1.6,-0.2 -2.5,-0.2 z"
   id="path20"
   inkscape:connector-curvature="0"
   style="opacity:0.6;fill:#ffffff;enable-background:new;stroke:none;stroke-opacity:1" />
		<path
   class="st0"
   d="m 311.6,892.4 c 0,-0.1 0.1,-0.1 0.1,-0.2 0,0.1 -0.1,0.1 -0.1,0.2 z"
   id="path22"
   inkscape:connector-curvature="0"
   style="opacity:0.6;fill:#ffffff;enable-background:new;stroke:none;stroke-opacity:1" />
		<path
   class="st0"
   d="m 703.1,888.3 c 0.7,0.3 1.3,0.6 2,0.9 -0.7,-0.3 -1.4,-0.6 -2,-0.9 -20.3,-8.5 -60.5,-13.6 -120.6,-15.1 -54.9,-1.5 -101.9,-3.8 -140.9,-7 39,3.2 86,5.5 140.9,7 60,1.6 100.3,6.6 120.6,15.1 z"
   id="path24"
   inkscape:connector-curvature="0"
   style="opacity:0.6;fill:#ffffff;enable-background:new;stroke:none;stroke-opacity:1" />
		<path
   class="st0"
   d="m 698,80.3 c -0.3,0 -0.6,-0.1 -0.9,-0.1 0.3,0 0.6,0.1 0.9,0.1 z"
   id="path26"
   inkscape:connector-curvature="0"
   style="opacity:0.6;fill:#ffffff;enable-background:new;stroke:none;stroke-opacity:1" />
		<path
   class="st0"
   d="m 693.6,79.8 c -0.3,0 -0.7,-0.1 -1,-0.1 0.3,0 0.6,0.1 1,0.1 z"
   id="path28"
   inkscape:connector-curvature="0"
   style="opacity:0.6;fill:#ffffff;enable-background:new;stroke:none;stroke-opacity:1" />
		<path
   class="st0"
   d="m 702.4,81.1 c -0.2,0 -0.5,-0.1 -0.7,-0.1 0.2,0 0.4,0 0.7,0.1 z"
   id="path30"
   inkscape:connector-curvature="0"
   style="opacity:0.6;fill:#ffffff;enable-background:new;stroke:none;stroke-opacity:1" />
		<path
   class="st0"
   d="m 736.9,96.5 c -0.3,-0.2 -0.6,-0.4 -0.9,-0.7 0.3,0.3 0.6,0.5 0.9,0.7 z"
   id="path32"
   inkscape:connector-curvature="0"
   style="opacity:0.6;fill:#ffffff;enable-background:new;stroke:none;stroke-opacity:1" />
		<path
   class="st0"
   d="m 605.7,164.1 c 5.6,-16.7 14.3,-29.3 26,-37.9 11.7,-8.6 24.9,-12.9 39.7,-12.9 16.2,0 30.1,6.1 41.8,18.4 11.6,12.2 17.5,27.9 17.5,46.9 0,0 0,0 0,0 0,-19 -5.8,-34.6 -17.5,-46.9 -11.6,-12.2 -25.6,-18.4 -41.8,-18.4 -14.7,0 -28,4.3 -39.7,12.9 -11.7,8.6 -20.4,21.3 -26,37.9 h -8.2 c 0,0 0,0 0,0 z"
   id="path34"
   inkscape:connector-curvature="0"
   style="opacity:0.6;fill:#ffffff;enable-background:new;stroke:none;stroke-opacity:1" />
		<path
   class="st0"
   d="m 688.8,79.4 c -0.3,0 -0.6,0 -1,-0.1 0.4,0.1 0.7,0.1 1,0.1 z"
   id="path36"
   inkscape:connector-curvature="0"
   style="opacity:0.6;fill:#ffffff;enable-background:new;stroke:none;stroke-opacity:1" />
		<path
   class="st0"
   d="m 636.7,351.6 v 0 c 9.5,-8.8 32.1,-32.7 68,-71.9 24.5,-26.7 42.2,-52 53.1,-76 7.1,-15.2 10.6,-30.4 10.6,-45.6 0,-8 -1.1,-15.6 -3.4,-22.7 2.3,7.2 3.4,14.8 3.4,22.7 0,15.2 -3.5,30.4 -10.6,45.6 -10.9,23.9 -28.6,49.2 -53.1,76 -35.8,39.2 -58.5,63.1 -68,71.9 z"
   id="path38"
   inkscape:connector-curvature="0"
   style="opacity:0.6;fill:#ffffff;enable-background:new;stroke:none;stroke-opacity:1" />
		<path
   class="st0"
   d="m 714.8,84.5 c 0,0 0,0 0,0 0,0 0,0 0,0 z"
   id="path40"
   inkscape:connector-curvature="0"
   style="opacity:0.6;fill:#ffffff;enable-background:new;stroke:none;stroke-opacity:1" />
		<path
   class="st0"
   d="m 706.6,82 c -0.2,0 -0.3,-0.1 -0.5,-0.1 0.2,0 0.3,0.1 0.5,0.1 z"
   id="path42"
   inkscape:connector-curvature="0"
   style="opacity:0.6;fill:#ffffff;enable-background:new;stroke:none;stroke-opacity:1" />
		<path
   class="st0"
   d="m 710.8,83.1 c -0.1,0 -0.2,-0.1 -0.3,-0.1 0.1,0.1 0.2,0.1 0.3,0.1 z"
   id="path44"
   inkscape:connector-curvature="0"
   style="opacity:0.6;fill:#ffffff;enable-background:new;stroke:none;stroke-opacity:1" />
		<path
   class="st0"
   d="m 759.7,849.1 c 0.1,0.1 0.2,0.3 0.2,0.4 -0.1,-0.2 -0.1,-0.3 -0.2,-0.4 z"
   id="path46"
   inkscape:connector-curvature="0"
   style="opacity:0.6;fill:#ffffff;enable-background:new;stroke:none;stroke-opacity:1" />
		<path
   class="st0"
   d="m 755.6,842.9 c 0.1,0 0.1,0 0,0 0.1,0 0.1,0 0,0 z"
   id="path48"
   inkscape:connector-curvature="0"
   style="opacity:0.6;fill:#ffffff;enable-background:new;stroke:none;stroke-opacity:1" />
		<path
   class="st0"
   d="m 753.1,839.5 c 0.2,0.2 0.3,0.5 0.5,0.7 -0.1,-0.2 -0.3,-0.5 -0.5,-0.7 z"
   id="path50"
   inkscape:connector-curvature="0"
   style="opacity:0.6;fill:#ffffff;enable-background:new;stroke:none;stroke-opacity:1" />
		<path
   class="st0"
   d="m 710.9,892.3 c -0.5,-0.3 -1,-0.6 -1.5,-0.8 0.6,0.2 1,0.5 1.5,0.8 z"
   id="path52"
   inkscape:connector-curvature="0"
   style="opacity:0.6;fill:#ffffff;enable-background:new;stroke:none;stroke-opacity:1" />
		<path
   class="st0"
   d="m 757.7,845.9 c 0.1,0.2 0.2,0.3 0.3,0.5 -0.1,-0.2 -0.2,-0.3 -0.3,-0.5 z"
   id="path54"
   inkscape:connector-curvature="0"
   style="opacity:0.6;fill:#ffffff;enable-background:new;stroke:none;stroke-opacity:1" />
		<path
   class="st0"
   d="m 709,891.2 c -0.4,-0.2 -0.9,-0.5 -1.3,-0.7 0.4,0.2 0.8,0.4 1.3,0.7 z"
   id="path56"
   inkscape:connector-curvature="0"
   style="opacity:0.6;fill:#ffffff;enable-background:new;stroke:none;stroke-opacity:1" />
		<path
   class="st0"
   d="m 750.9,836.7 c 0.1,0.2 0.2,0.3 0.4,0.5 -0.1,-0.2 -0.3,-0.3 -0.4,-0.5 z"
   id="path58"
   inkscape:connector-curvature="0"
   style="opacity:0.6;fill:#ffffff;enable-background:new;stroke:none;stroke-opacity:1" />
		<path
   class="st0"
   d="M 500,0 C 223.9,0 0,223.8 0,500 c 0,192.5 108.8,359.6 268.3,443.1 5.5,-7.5 12.4,-16.4 19.5,-25.2 0.1,-0.1 0.2,-0.2 0.3,-0.4 C 136,840.2 31.8,682.3 31.8,500 31.8,241.4 241.4,31.8 500,31.8 c 79.1,0 153.6,19.6 218.9,54.3 5.3,2.2 10.3,5 15.1,8.3 140,80.9 234.2,232.2 234.2,405.6 0,156.9 -77.2,295.7 -195.6,380.7 2.1,8.9 3.1,18.2 3.1,28 0,2.9 -0.1,5.8 -0.3,8.7 C 910.7,827.9 1000,674.4 1000,500 1000,223.8 776.1,0 500,0 Z"
   id="path60"
   inkscape:connector-curvature="0"
   style="opacity:0.6;fill:#ffffff;enable-background:new;stroke:none;stroke-opacity:1" />
		<path
   class="st0"
   d="m 763.6,856 c 0,-0.1 -0.1,-0.2 -0.1,-0.3 0,0.1 0,0.2 0.1,0.3 z"
   id="path62"
   inkscape:connector-curvature="0"
   style="opacity:0.6;fill:#ffffff;enable-background:new;stroke:none;stroke-opacity:1" />
		<path
   class="st0"
   d="m 323.6,879.8 c 0,0 0,0 0,0 0,0 0,0 0,0 z"
   id="path64"
   inkscape:connector-curvature="0"
   style="opacity:0.6;fill:#ffffff;enable-background:new;stroke:none;stroke-opacity:1" />
		<path
   class="st0"
   d="m 745.6,830.6 c 0.2,0.2 0.5,0.5 0.7,0.7 -0.3,-0.2 -0.5,-0.4 -0.7,-0.7 z"
   id="path66"
   inkscape:connector-curvature="0"
   style="opacity:0.6;fill:#ffffff;enable-background:new;stroke:none;stroke-opacity:1" />
		<path
   class="st0"
   d="m 748.1,833.4 c 0.2,0.2 0.4,0.4 0.5,0.6 -0.1,-0.2 -0.3,-0.4 -0.5,-0.6 z"
   id="path68"
   inkscape:connector-curvature="0"
   style="opacity:0.6;fill:#ffffff;enable-background:new;stroke:none;stroke-opacity:1" />
		<path
   class="st0"
   d="m 318.4,885.2 c 0.1,-0.1 0.3,-0.3 0.4,-0.4 -0.1,0.1 -0.3,0.3 -0.4,0.4 z"
   id="path70"
   inkscape:connector-curvature="0"
   style="opacity:0.6;fill:#ffffff;enable-background:new;stroke:none;stroke-opacity:1" />
		<path
   class="st0"
   d="m 711.2,892.5 c 7.4,4.5 12.9,10 16.5,16.7 -67.4,37.6 -145,59 -227.7,59 -60.5,0 -118.4,-11.5 -171.5,-32.4 0.8,-2.4 1.7,-4.8 2.7,-7.2 -5,11.8 -7.4,23 -7.4,33.4 0,1.8 0.3,4.4 0.5,6.3 54.7,20.5 113.9,31.7 175.7,31.7 83.7,0 162.6,-20.6 231.9,-56.9 0.7,-3.9 1.1,-7.8 1.1,-11.8 -0.1,-17.2 -7.3,-30.1 -21.8,-38.8 z"
   id="path72"
   inkscape:connector-curvature="0"
   style="opacity:0.6;fill:#ffffff;enable-background:new;stroke:none;stroke-opacity:1" />
		<path
   class="st0"
   d="m 316.1,887.7 c 0,-0.1 0.1,-0.1 0.1,-0.2 0,0.1 -0.1,0.1 -0.1,0.2 z"
   id="path74"
   inkscape:connector-curvature="0"
   style="opacity:0.6;fill:#ffffff;enable-background:new;stroke:none;stroke-opacity:1" />
		<path
   class="st0"
   d="m 320.9,882.6 c 0.1,-0.1 0.3,-0.3 0.4,-0.4 -0.1,0.2 -0.3,0.3 -0.4,0.4 z"
   id="path76"
   inkscape:connector-curvature="0"
   style="opacity:0.6;fill:#ffffff;enable-background:new;stroke:none;stroke-opacity:1" />
		<path
   class="st0"
   d="m 334.2,922.1 c 0.2,-0.5 0.5,-0.9 0.7,-1.4 -0.2,0.4 -0.4,0.9 -0.7,1.4 z"
   id="path78"
   inkscape:connector-curvature="0"
   style="opacity:0.6;fill:#ffffff;enable-background:new;stroke:none;stroke-opacity:1" />
		<path
   class="st0"
   d="m 335.8,918.9 c 0.2,-0.4 0.4,-0.8 0.6,-1.1 -0.2,0.4 -0.4,0.7 -0.6,1.1 z"
   id="path80"
   inkscape:connector-curvature="0"
   style="opacity:0.6;fill:#ffffff;enable-background:new;stroke:none;stroke-opacity:1" />
		<path
   class="st0"
   d="m 331.5,928 c 0.3,-0.6 0.5,-1.2 0.8,-1.8 -0.2,0.6 -0.5,1.2 -0.8,1.8 z"
   id="path82"
   inkscape:connector-curvature="0"
   style="opacity:0.6;fill:#ffffff;enable-background:new;stroke:none;stroke-opacity:1" />
		<path
   class="st0"
   d="m 332.8,925.1 c 0.2,-0.5 0.5,-1.1 0.7,-1.6 -0.2,0.5 -0.4,1 -0.7,1.6 z"
   id="path84"
   inkscape:connector-curvature="0"
   style="opacity:0.6;fill:#ffffff;enable-background:new;stroke:none;stroke-opacity:1" />
		<path
   class="st0"
   d="m 707,890.2 c -0.5,-0.2 -0.9,-0.4 -1.4,-0.7 0.5,0.2 1,0.4 1.4,0.7 z"
   id="path86"
   inkscape:connector-curvature="0"
   style="opacity:0.6;fill:#ffffff;enable-background:new;stroke:none;stroke-opacity:1" />
	</g>
	<path
   class="st1"
   d="m 787,327.9 h -8.2 c -3.8,6.6 -8.3,11.8 -13.5,15.4 -5.2,3.6 -11,6 -17.4,7.2 -6.4,1.2 -17.6,1.8 -33.5,1.8 h -77.1 l -0.5,-0.6 c 9.4,-8.8 32.1,-32.7 68,-71.9 24.5,-26.7 42.2,-52 53.1,-76 7.1,-15.2 10.6,-30.4 10.6,-45.6 0,-21.3 -8.2,-39.7 -24.4,-55.4 -16.3,-15.7 -36.6,-23.5 -61,-23.5 -22.9,0 -41.9,7.3 -57.2,21.9 -15.3,14.6 -24.7,35.6 -28.4,62.9 h 8.2 c 5.6,-16.7 14.3,-29.3 26,-37.9 11.7,-8.6 24.9,-12.9 39.7,-12.9 16.2,0 30.1,6.1 41.8,18.4 11.6,12.2 17.5,27.9 17.5,46.9 0,25 -10.6,52.5 -31.8,82.6 -15.6,22.2 -39.6,49.1 -71.9,80.6 -36.7,-23.2 -79.7,-34.9 -129.2,-34.9 -62.5,0 -113.7,19.1 -153.8,57.4 -40,38.3 -60,84 -60,137.1 0,34.8 8.8,66.5 26.3,95.2 17.5,28.7 42.7,51.1 75.4,67.1 -40.2,33.6 -65.8,59.6 -76.9,78 -11.1,18.4 -16.7,34.4 -16.7,48.1 0,12.1 4.2,23 12.6,32.5 8.4,9.6 22.7,20.4 43,32.5 -37.2,38.6 -57.1,59.6 -59.9,63.1 -7.3,9 -14,17.6 -19.5,25.2 17.9,9.4 36.9,17.9 56.1,25.1 -0.3,-1.9 -0.5,-4.3 -0.5,-6.3 0,-14.3 4.7,-30.1 14.1,-47.1 9.4,-17.1 23.4,-35.5 41.8,-55.3 47.2,6.7 114.8,11.3 202.6,13.6 60.1,1.5 100.3,6.6 120.6,15.1 19.9,8.5 29.9,22.8 29.9,43 0,4.1 -0.3,7.7 -1.1,11.8 15,-7.8 29.5,-16.5 43.5,-25.7 0.2,-3.1 0.3,-5.6 0.3,-8.7 0,-31.9 -10.9,-58.8 -32.5,-80.6 -21.7,-21.8 -50.7,-35.2 -87,-40.3 -23.8,-3.9 -76,-6.9 -156.4,-9.1 -43.8,-1.3 -71.1,-2.8 -82,-4.5 -18.8,-2.7 -31.4,-7.1 -37.8,-13.3 -6.4,-6.2 -9.7,-12.6 -9.7,-19.1 0,-7.7 3,-17.1 9.1,-28.1 6.1,-11 17.7,-23.9 34.9,-38.6 27.7,7.9 54.8,11.9 81.3,11.9 64.3,0 115.6,-17.8 153.8,-53.4 38.2,-35.6 57.3,-78.5 57.3,-128.6 0,-39.9 -9.1,-73.4 -27.3,-100.3 h 81.2 z M 575.2,624.5 c -19.1,22.2 -43.4,33.3 -72.9,33.3 -31.1,0 -56.8,-12.8 -77,-38.6 -26.4,-33.9 -39.7,-81.6 -39.7,-143.1 0,-47.5 9.7,-82.7 29.2,-105.7 19.4,-23 43.6,-34.5 72.3,-34.5 31.1,0 56.6,12.9 76.4,38.6 26.8,35 40.3,83.5 40.3,145.4 0,47.5 -9.5,82.4 -28.6,104.6 z"
   id="path90"
   inkscape:connector-curvature="0"
   style="fill:#ffffff;stroke:none;stroke-opacity:1" />
</g>
</svg>